<svg height="7in" viewBox="0 0 1000 1000" width="7in" xmlns="http://www.w3.org/2000/svg">
<path d="M297,481 L16,640 L233,9 z" fill="none" stroke="black" stroke-width="2"/>
<path d="M489,29 L861,296 L812,491 z" fill="none" stroke="black" stroke-width="2"/>
<path d="M400,607 L454,33 L569,571 z" fill="none" stroke="black" stroke-width="2"/>
<path d="M498,998 L767,914 L896,974 z" fill="none" stroke="black" stroke-width="2"/>
<path d="M896,375 L869,986 L255,211 z" fill="none" stroke="black" stroke-width="2"/>
<path d="M981,400 L983,728 L74,685 z" fill="none" stroke="black" stroke-width="2"/>
<path d="M340,355 L486,472 L430,753 z" fill="none" stroke="black" stroke-width="2"/>
<path d="M27,778 L362,104 L383,859 z" fill="none" stroke="black" stroke-width="2"/>
<path d="M472,186 L456,91 L755,686 z" fill="none" stroke="black" stroke-width="2"/>
<path d="M782,774 L835,491 L868,949 z" fill="none" stroke="black" stroke-width="2"/>
<path d="M182,647 L529,54 L257,778 z" fill="none" stroke="black" stroke-width="2"/>
<path d="M498,592 L87,361 L976,500 z" fill="none" stroke="black" stroke-width="2"/>
<path d="M692,639 L138,420 L623,278 z" fill="none" stroke="black" stroke-width="2"/>
<path d="M640,343 L147,830 L633,73 z" fill="none" stroke="black" stroke-width="2"/>
<path d="M462,547 L526,9 L715,887 z" fill="none" stroke="black" stroke-width="2"/>
<path d="M397,861 L865,828 L897,947 z" fill="none" stroke="black" stroke-width="2"/>
<path d="M38,875 L531,123 L484,210 z" fill="none" stroke="black" stroke-width="2"/>
<path d="M808,313 L752,939 L426,275 z" fill="none" stroke="black" stroke-width="2"/>
<path d="M69,457 L150,294 L112,686 z" fill="none" stroke="black" stroke-width="2"/>
<path d="M545,850 L934,255 L867,630 z" fill="none" stroke="black" stroke-width="2"/>
<path d="M258,74 L20,871 L21,294 z" fill="none" stroke="black" stroke-width="2"/>
<path d="M313,404 L848,370 L383,823 z" fill="none" stroke="black" stroke-width="2"/>
<path d="M556,535 L192,771 L246,450 z" fill="none" stroke="black" stroke-width="2"/>
<path d="M554,108 L358,963 L354,346 z" fill="none" stroke="black" stroke-width="2"/>
<path d="M863,225 L948,851 L676,876 z" fill="none" stroke="black" stroke-width="2"/>
<path d="M860,455 L199,101 L995,145 z" fill="none" stroke="black" stroke-width="2"/>
<path d="M281,271 L902,441 L481,711 z" fill="none" stroke="black" stroke-width="2"/>
<path d="M901,254 L106,432 L655,267 z" fill="none" stroke="black" stroke-width="2"/>
<path d="M789,460 L900,626 L522,835 z" fill="none" stroke="black" stroke-width="2"/>
<path d="M260,607 L558,539 L119,890 z" fill="none" stroke="black" stroke-width="2"/>
<path d="M917,399 L668,347 L464,190 z" fill="none" stroke="black" stroke-width="2"/>
<path d="M305,186 L953,111 L658,809 z" fill="none" stroke="black" stroke-width="2"/>
<path d="M245,219 L627,275 L953,785 z" fill="none" stroke="black" stroke-width="2"/>
<path d="M402,421 L242,293 L703,349 z" fill="none" stroke="black" stroke-width="2"/>
<path d="M988,538 L912,542 L429,518 z" fill="none" stroke="black" stroke-width="2"/>
<path d="M267,283 L615,237 L599,875 z" fill="none" stroke="black" stroke-width="2"/>
<path d="M749,101 L501,913 L211,417 z" fill="none" stroke="black" stroke-width="2"/>
<path d="M684,182 L515,562 L216,344 z" fill="none" stroke="black" stroke-width="2"/>
<path d="M548,638 L238,4 L625,329 z" fill="none" stroke="black" stroke-width="2"/>
<path d="M171,380 L660,666 L84,515 z" fill="none" stroke="black" stroke-width="2"/>
<path d="M445,385 L215,778 L51,826 z" fill="none" stroke="black" stroke-width="2"/>
<path d="M850,529 L647,697 L67,776 z" fill="none" stroke="black" stroke-width="2"/>
<path d="M414,19 L957,166 L543,249 z" fill="none" stroke="black" stroke-width="2"/>
<path d="M64,138 L719,62 L680,269 z" fill="none" stroke="black" stroke-width="2"/>
<path d="M593,863 L519,401 L757,402 z" fill="none" stroke="black" stroke-width="2"/>
<path d="M810,801 L278,507 L988,663 z" fill="none" stroke="black" stroke-width="2"/>
<path d="M824,847 L404,468 L862,460 z" fill="none" stroke="black" stroke-width="2"/>
<path d="M990,535 L947,616 L596,513 z" fill="none" stroke="black" stroke-width="2"/>
<path d="M252,738 L740,281 L736,687 z" fill="none" stroke="black" stroke-width="2"/>
<path d="M223,825 L198,636 L407,739 z" fill="none" stroke="black" stroke-width="2"/>
<path d="M924,215 L772,367 L159,540 z" fill="none" stroke="black" stroke-width="2"/>
<path d="M30,345 L774,151 L998,339 z" fill="none" stroke="black" stroke-width="2"/>
<path d="M658,623 L291,686 L158,65 z" fill="none" stroke="black" stroke-width="2"/>
<path d="M507,187 L966,439 L404,566 z" fill="none" stroke="black" stroke-width="2"/>
<path d="M228,120 L924,577 L688,432 z" fill="none" stroke="black" stroke-width="2"/>
<path d="M977,911 L455,9 L894,718 z" fill="none" stroke="black" stroke-width="2"/>
<path d="M310,769 L296,352 L862,533 z" fill="none" stroke="black" stroke-width="2"/>
<path d="M79,359 L145,366 L185,491 z" fill="none" stroke="black" stroke-width="2"/>
<path d="M682,235 L528,561 L578,401 z" fill="none" stroke="black" stroke-width="2"/>
<path d="M179,60 L733,640 L343,504 z" fill="none" stroke="black" stroke-width="2"/>
</svg>